<?xml version="1.0" encoding="utf-8"?>
<!-- Generator: Adobe Illustrator 19.0.0, SVG Export Plug-In . SVG Version: 6.00 Build 0)  -->
<svg version="1.1" id="Calque_1" xmlns="http://www.w3.org/2000/svg" xmlns:xlink="http://www.w3.org/1999/xlink" x="0px" y="0px"
	 viewBox="-276.5 190.1 36 324" style="enable-background:new -276.5 190.1 36 324;" xml:space="preserve">
<style type="text/css">
	.st0{fill:#7FBEE8;}
	.st1{fill:#BC76B2;}
	.st2{fill:#5C74C0;}
</style>
<g>
	<path class="st0" d="M-258.5,298.1c-9.9,0-18-8.1-18-18c0-9.9,8.1-18,18-18c9.9,0,18,8.1,18,18C-240.5,290-248.6,298.1-258.5,298.1
		z M-258.5,264c-8.9,0-16.1,7.2-16.1,16.1c0,8.9,7.2,16.1,16.1,16.1c8.9,0,16.1-7.2,16.1-16.1C-242.4,271.2-249.6,264-258.5,264z"/>
	<path class="st0" d="M-261.7,285.4c-0.5,0-0.9-0.4-0.9-0.9v-8.6c0-0.5,0.4-0.9,0.9-0.9c0.5,0,0.9,0.4,0.9,0.9v8.6
		C-260.8,285-261.2,285.4-261.7,285.4z"/>
	<path class="st0" d="M-254.2,285.4c-0.5,0-0.9-0.4-0.9-0.9v-8.6c0-0.5,0.4-0.9,0.9-0.9c0.5,0,0.9,0.4,0.9,0.9v8.6
		C-253.3,285-253.7,285.4-254.2,285.4z"/>
</g>
<g>
	<path class="st0" d="M-258.5,262.1c-9.9,0-18-8.1-18-18c0-9.9,8.1-18,18-18c9.9,0,18,8.1,18,18C-240.5,254-248.6,262.1-258.5,262.1
		z M-258.5,228c-8.9,0-16.1,7.2-16.1,16.1c0,8.9,7.2,16.1,16.1,16.1c8.9,0,16.1-7.2,16.1-16.1C-242.4,235.2-249.6,228-258.5,228z"/>
	<path class="st0" d="M-254.2,249.3h-8.5c-0.5,0-0.9-0.4-0.9-0.9v-8.5c0-0.5,0.4-0.9,0.9-0.9l8.5,0c0.3,0,0.5,0.1,0.7,0.3
		c0.2,0.2,0.3,0.4,0.3,0.7v8.5C-253.3,248.9-253.7,249.3-254.2,249.3z M-261.8,247.4h6.6v-6.6l-6.6,0V247.4z"/>
</g>
<g id="go2XTc_1_">
</g>
<g>
	<path class="st1" d="M-258.5,226.1c-9.9,0-18-8.1-18-18s8.1-18,18-18c9.9,0,18,8.1,18,18S-248.6,226.1-258.5,226.1z M-258.5,192
		c-8.9,0-16.1,7.2-16.1,16.1c0,8.9,7.2,16.1,16.1,16.1s16.1-7.2,16.1-16.1C-242.4,199.2-249.6,192-258.5,192z"/>
	<path class="st1" d="M-262.5,216.3c-0.2,0-0.3,0-0.5-0.1c-0.3-0.2-0.5-0.5-0.5-0.8v-14.4c0-0.3,0.2-0.7,0.5-0.8
		c0.3-0.2,0.7-0.2,1,0l12.2,7.2c0.3,0.2,0.5,0.5,0.5,0.8c0,0.3-0.2,0.6-0.5,0.8l-12.2,7.2C-262.1,216.2-262.3,216.3-262.5,216.3z
		 M-261.5,202.6v11.1l9.4-5.6L-261.5,202.6z"/>
</g>
<path class="st1" d="M-253.4,324.8C-253.4,324.8-253.4,324.8-253.4,324.8c-0.7,0-1.3-0.5-1.8-0.9l-3.5-3.6l-3.5,3.5
	c-1,1-2.6,0.9-3.6,0c-0.5-0.5-0.7-1.1-0.7-1.8c0-0.7,0.3-1.3,0.7-1.8l3.8-3.8l-3.8-3.8c-1-1-1-2.6,0-3.6c1-1,2.6-1,3.6,0l3.5,3.5
	l3.5-3.5c1-1,2.6-1,3.6,0c1,1,1,2.6,0,3.6l-3.8,3.8l3.8,3.8c0.5,0.5,0.7,1.1,0.7,1.8c0,0.7-0.3,1.5-0.7,2
	C-252.1,324.4-252.8,324.8-253.4,324.8z M-258.7,318.7l4.3,4.5c0.3,0.3,0.6,0.7,1,0.7h0c0.4,0,0.8-0.4,1-0.7
	c0.3-0.3,0.4-0.8,0.4-1.1s-0.2-0.8-0.4-1.1l-4.5-4.5l4.5-4.5c0.6-0.6,0.6-1.5,0-2.1c-0.5-0.6-1.5-0.6-2.1,0l-4.3,4.3l-4.3-4.3
	c-0.5-0.5-1.5-0.5-2.1,0c-0.6,0.6-0.6,1.5,0,2l4.5,4.5l-4.5,4.5c-0.3,0.3-0.4,0.6-0.4,1c0,0.4,0.1,0.8,0.4,1c0.5,0.5,1.5,0.5,2,0
	L-258.7,318.7z"/>
<path class="st1" d="M-258.5,334.1c-9.9,0-18-8.1-18-18c0-9.9,8.1-18,18-18c9.9,0,18,8.1,18,18C-240.5,326-248.6,334.1-258.5,334.1z
	 M-258.5,299.6c-9.1,0-16.6,7.4-16.6,16.6c0,9.1,7.4,16.6,16.6,16.6c9.1,0,16.6-7.4,16.6-16.6C-241.9,307-249.4,299.6-258.5,299.6z"
	/>
<g id="Music_x5F_Note">
	<g>
		<path class="st1" d="M-245.5,478.3c-0.3-0.2-0.6-0.3-1-0.2l-15.7,4.5c-0.5,0.1-0.8,0.6-0.8,1.1V504c-0.9-0.7-2.1-1.1-3.4-1.1
			c-3.1,0-5.6,2.5-5.6,5.6c0,3.1,2.5,5.6,5.6,5.6c3.1,0,5.6-2.5,5.6-5.6v-19.4l13.5-3.9v14.3c-0.9-0.7-2.1-1.1-3.4-1.1
			c-3.1,0-5.6,2.5-5.6,5.6c0,3.1,2.5,5.6,5.6,5.6c3.1,0,5.6-2.5,5.6-5.6v-24.8C-245,478.9-245.2,478.6-245.5,478.3z M-266.4,511.9
			c-1.9,0-3.4-1.5-3.4-3.4c0-1.9,1.5-3.4,3.4-3.4c1.9,0,3.4,1.5,3.4,3.4C-263,510.3-264.5,511.9-266.4,511.9z M-250.6,507.4
			c-1.9,0-3.4-1.5-3.4-3.4c0-1.9,1.5-3.4,3.4-3.4c1.9,0,3.4,1.5,3.4,3.4C-247.3,505.8-248.8,507.4-250.6,507.4z M-247.3,482.9
			l-13.5,3.9v-2.1l13.5-3.9V482.9z"/>
	</g>
</g>
<path class="st2" d="M-258.5,370.1c-9.9,0-18-8.1-18-18c0-9.9,8.1-18,18-18c9.9,0,18,8.1,18,18C-240.5,362-248.6,370.1-258.5,370.1z
	 M-258.5,337.8c-7.9,0-14.3,6.4-14.3,14.3c0,7.9,6.4,14.3,14.3,14.3c7.9,0,14.3-6.4,14.3-14.3C-244.2,344.2-250.6,337.8-258.5,337.8
	z"/>
<path class="st2" d="M-259.4,354.4c-1,0-1.9-0.8-1.9-1.9v-7.5c0-1,0.8-1.9,1.9-1.9s1.9,0.8,1.9,1.9v7.5
	C-257.6,353.6-258.4,354.4-259.4,354.4z"/>
<path class="st2" d="M-252,354.9h-7.5c-1,0-1.9-0.8-1.9-1.9c0-1,0.8-1.9,1.9-1.9h7.5c1,0,1.9,0.8,1.9,1.9
	C-250.1,354.1-250.9,354.9-252,354.9z"/>
<g id="User">
	<g>
		<path class="st1" d="M-258.5,466.9c5.6,0,10.1-5.6,10.1-12.4c0-6.8-4.5-12.4-10.1-12.4c-2.8,0-5.3,1.3-7.2,3.7
			c-1.9,2.3-2.9,5.4-2.9,8.7C-268.6,461.3-264.1,466.9-258.5,466.9z M-258.5,444.4c4.3,0,7.9,4.5,7.9,10.1c0,5.6-3.5,10.1-7.9,10.1
			c-4.3,0-7.9-4.5-7.9-10.1C-266.4,448.9-262.8,444.4-258.5,444.4z M-250.6,464.6c-0.6,0-1.1,0.5-1.1,1.1c0,0.6,0.5,1.1,1.1,1.1
			c4.3,0,7.9,3.5,7.9,7.9c0,0.6-0.5,1.1-1.1,1.1h-29.2c-0.6,0-1.1-0.5-1.1-1.1c0-4.3,3.5-7.9,7.9-7.9c0.6,0,1.1-0.5,1.1-1.1
			c0-0.6-0.5-1.1-1.1-1.1c-5.6,0-10.1,4.5-10.1,10.1c0,1.9,1.5,3.4,3.4,3.4h29.2c1.9,0,3.4-1.5,3.4-3.4
			C-240.5,469.2-245,464.6-250.6,464.6z"/>
	</g>
</g>
<g id="Smartphone">
	<g>
		<path class="st1" d="M-250.3,406.1h-16.3c-1.7,0-3.1,1.5-3.1,3.2v29.5c0,1.8,1.4,3.2,3.1,3.2h16.3c1.7,0,3.1-1.5,3.1-3.2v-29.5
			C-247.2,407.6-248.6,406.1-250.3,406.1z M-249.5,438.9c0,0.5-0.4,1-0.8,1h-16.3c-0.5,0-0.8-0.4-0.8-1v-4.6h18L-249.5,438.9
			L-249.5,438.9z M-249.5,432h-18v-16.9h18V432z M-249.5,412.9h-18v-3.5c0-0.5,0.4-1,0.8-1h16.3c0.5,0,0.8,0.4,0.8,1L-249.5,412.9
			L-249.5,412.9z M-258.5,438.7c0.9,0,1.7-0.8,1.7-1.7s-0.8-1.7-1.7-1.7c-0.9,0-1.7,0.8-1.7,1.7S-259.4,438.7-258.5,438.7z
			 M-256.2,409.5h-4.5c-0.6,0-1.1,0.5-1.1,1.1c0,0.6,0.5,1.1,1.1,1.1h4.5c0.6,0,1.1-0.5,1.1-1.1S-255.6,409.5-256.2,409.5z"/>
	</g>
</g>
<g id="Mail_x5F_1">
	<g>
		<path class="st1" d="M-241.5,371.1c-0.6-0.6-1.5-1-2.4-1h-29.3c-0.9,0-1.7,0.4-2.4,1c-0.6,0.6-1,1.5-1,2.4v29.2
			c0,0.2,0,0.5,0.1,0.7c0,0,0,0.1,0,0.1c0,0.2,0.1,0.4,0.2,0.5c0,0,0,0,0,0c0.2,0.4,0.4,0.7,0.7,1c0.1,0.1,0.3,0.3,0.5,0.4
			c0,0,0,0,0,0c0.2,0.1,0.3,0.2,0.5,0.3c0,0,0.1,0,0.1,0c0.2,0.1,0.3,0.1,0.5,0.2c0,0,0.1,0,0.1,0c0.2,0,0.4,0.1,0.7,0.1h29.2
			c0.2,0,0.5,0,0.7-0.1c0,0,0.1,0,0.1,0c0.2,0,0.3-0.1,0.5-0.2c0,0,0.1,0,0.1,0c0.2-0.1,0.3-0.2,0.5-0.3c0,0,0,0,0,0
			c0.2-0.1,0.3-0.2,0.5-0.4c0.3-0.3,0.5-0.6,0.7-1c0,0,0,0,0-0.1c0.1-0.2,0.1-0.3,0.2-0.5c0,0,0-0.1,0-0.1c0-0.2,0.1-0.4,0.1-0.7
			v-29.2C-240.5,372.6-240.9,371.7-241.5,371.1z M-274.2,377.1l11,11l-11,11V377.1z M-242.8,403.2c-0.1,0.1-0.1,0.3-0.2,0.4
			c-0.1,0.1-0.2,0.2-0.4,0.2c-0.1,0.1-0.3,0.1-0.4,0.1h-29.3c-0.2,0-0.3,0-0.4-0.1c-0.1-0.1-0.3-0.1-0.4-0.2
			c-0.1-0.1-0.2-0.2-0.2-0.4c-0.1-0.1-0.1-0.3-0.1-0.4c0-0.3,0.1-0.6,0.3-0.8l12.2-12.2l0.8,0.8c0.6,0.6,1.5,1,2.4,1
			c0.9,0,1.7-0.4,2.4-1l0.8-0.8l12.2,12.2c0.2,0.2,0.3,0.5,0.3,0.8C-242.7,402.9-242.8,403-242.8,403.2z M-242.7,399.1l-11-11l11-11
			V399.1z M-243.1,374.3l-14.6,14.6c-0.4,0.4-1.2,0.4-1.6,0l-14.6-14.6c-0.2-0.2-0.3-0.5-0.3-0.8c0-0.3,0.1-0.6,0.3-0.8
			c0.2-0.2,0.5-0.3,0.8-0.3h29.3c0.3,0,0.6,0.1,0.8,0.3c0.2,0.2,0.3,0.5,0.3,0.8C-242.7,373.8-242.9,374.1-243.1,374.3z"/>
	</g>
</g>
</svg>
