<?xml version="1.0" encoding="utf-8"?>
<!-- Generator: Adobe Illustrator 19.0.0, SVG Export Plug-In . SVG Version: 6.00 Build 0)  -->
<svg version="1.1" id="Calque_1" xmlns="http://www.w3.org/2000/svg" xmlns:xlink="http://www.w3.org/1999/xlink" x="0px" y="0px"
	 viewBox="-396.5 112.5 36 324" style="enable-background:new -396.5 112.5 36 324;" xml:space="preserve">
<style type="text/css">
	.st0{fill:#7FBEE8;}
	.st1{fill:#BC76B2;}
	.st2{fill:#5C74C0;}
</style>
<g id="go2XTc_1_">
</g>
<g>
	<path class="st0" d="M-378.5,220.5c-9.9,0-18-8.1-18-18s8.1-18,18-18s18,8.1,18,18S-368.6,220.5-378.5,220.5z M-378.5,186.4
		c-8.9,0-16.1,7.2-16.1,16.1s7.2,16.1,16.1,16.1s16.1-7.2,16.1-16.1S-369.6,186.4-378.5,186.4z"/>
	<path class="st0" d="M-381.7,207.8c-0.5,0-0.9-0.4-0.9-0.9v-8.6c0-0.5,0.4-0.9,0.9-0.9s0.9,0.4,0.9,0.9v8.6
		C-380.8,207.4-381.3,207.8-381.7,207.8z"/>
	<path class="st0" d="M-374.3,207.8c-0.5,0-0.9-0.4-0.9-0.9v-8.6c0-0.5,0.4-0.9,0.9-0.9s0.9,0.4,0.9,0.9v8.6
		C-373.3,207.4-373.7,207.8-374.3,207.8z"/>
</g>
<g>
	<path class="st0" d="M-378.5,184.5c-9.9,0-18-8.1-18-18s8.1-18,18-18s18,8.1,18,18S-368.6,184.5-378.5,184.5z M-378.5,150.4
		c-8.9,0-16.1,7.2-16.1,16.1c0,8.9,7.2,16.1,16.1,16.1s16.1-7.2,16.1-16.1S-369.6,150.4-378.5,150.4z"/>
	<path class="st0" d="M-374.3,171.7h-8.5c-0.5,0-0.9-0.4-0.9-0.9v-8.5c0-0.5,0.4-0.9,0.9-0.9h8.5c0.3,0,0.5,0.1,0.7,0.3
		s0.3,0.4,0.3,0.7v8.5C-373.3,171.3-373.7,171.7-374.3,171.7z M-381.8,169.8h6.6v-6.6h-6.6V169.8z"/>
</g>
<g>
	<path class="st1" d="M-378.5,148.5c-9.9,0-18-8.1-18-18s8.1-18,18-18s18,8.1,18,18S-368.6,148.5-378.5,148.5z M-378.5,114.4
		c-8.9,0-16.1,7.2-16.1,16.1c0,8.9,7.2,16.1,16.1,16.1s16.1-7.2,16.1-16.1S-369.6,114.4-378.5,114.4z"/>
	<path class="st1" d="M-382.5,138.7c-0.2,0-0.3,0-0.5-0.1c-0.3-0.2-0.5-0.5-0.5-0.8v-14.4c0-0.3,0.2-0.7,0.5-0.8
		c0.3-0.2,0.7-0.2,1,0l12.2,7.2c0.3,0.2,0.5,0.5,0.5,0.8s-0.2,0.6-0.5,0.8l-12.2,7.2C-382.1,138.6-382.3,138.7-382.5,138.7z
		 M-381.5,125v11.1l9.4-5.6L-381.5,125z"/>
</g>
<path class="st1" d="M-373.5,246.8L-373.5,246.8c-0.7,0-1.3-0.5-1.8-0.9l-3.5-3.6l-3.5,3.5c-1,1-2.6,0.9-3.6,0
	c-0.5-0.5-0.7-1.1-0.7-1.8s0.3-1.3,0.7-1.8l3.8-3.8l-3.8-3.8c-1-1-1-2.6,0-3.6s2.6-1,3.6,0l3.5,3.5l3.5-3.5c1-1,2.6-1,3.6,0
	s1,2.6,0,3.6l-3.8,3.8l3.8,3.8c0.5,0.5,0.7,1.1,0.7,1.8c0,0.7-0.3,1.5-0.7,2C-372.2,246.4-372.9,246.8-373.5,246.8z M-378.7,240.7
	l4.3,4.5c0.3,0.3,0.6,0.7,1,0.7l0,0c0.4,0,0.8-0.4,1-0.7c0.3-0.3,0.4-0.8,0.4-1.1s-0.2-0.8-0.4-1.1l-4.5-4.5l4.5-4.5
	c0.6-0.6,0.6-1.5,0-2.1c-0.5-0.6-1.5-0.6-2.1,0l-4.3,4.3l-4.3-4.3c-0.5-0.5-1.5-0.5-2.1,0c-0.6,0.6-0.6,1.5,0,2l4.5,4.5l-4.5,4.5
	c-0.3,0.3-0.4,0.6-0.4,1s0.1,0.8,0.4,1c0.5,0.5,1.5,0.5,2,0L-378.7,240.7z"/>
<path class="st1" d="M-378.5,256.5c-9.9,0-18-8.1-18-18s8.1-18,18-18s18,8.1,18,18S-368.6,256.5-378.5,256.5z M-378.5,222
	c-9.1,0-16.6,7.4-16.6,16.6c0,9.1,7.4,16.6,16.6,16.6c9.1,0,16.6-7.4,16.6-16.6S-369.4,222-378.5,222z"/>
<g id="Music_x5F_Note_1_">
	<g>
		<path class="st1" d="M-365.6,400.7c-0.3-0.2-0.6-0.3-1-0.2l-15.6,4.5c-0.5,0.1-0.8,0.6-0.8,1.1v20.3c-0.9-0.7-2.1-1.1-3.4-1.1
			c-3.1,0-5.6,2.5-5.6,5.6c0,3.1,2.5,5.6,5.6,5.6s5.6-2.5,5.6-5.6v-19.4l13.4-3.9v14.3c-0.9-0.7-2.1-1.1-3.4-1.1
			c-3.1,0-5.6,2.5-5.6,5.6c0,3.1,2.5,5.6,5.6,5.6s5.6-2.5,5.6-5.6v-24.8C-365.1,401.3-365.4,401-365.6,400.7z M-386.3,434.4
			c-1.9,0-3.4-1.5-3.4-3.4s1.5-3.4,3.4-3.4s3.4,1.5,3.4,3.4C-382.9,432.8-384.4,434.4-386.3,434.4z M-370.6,429.8
			c-1.9,0-3.4-1.5-3.4-3.4c0-1.9,1.5-3.4,3.4-3.4s3.4,1.5,3.4,3.4C-367.3,428.3-368.8,429.8-370.6,429.8z M-367.3,405.4l-13.4,3.9
			v-2.1l13.4-3.9V405.4L-367.3,405.4z"/>
	</g>
</g>
<g>
	<g>
		<path class="st2" d="M-378.5,292.5c-9.9,0-18-8.1-18-18c0-9.9,8-18,18-18c9.9,0,18,8.1,18,18
			C-360.6,284.4-368.6,292.5-378.5,292.5z M-378.5,260.1c-7.8,0-14.3,6.4-14.3,14.4c0,8,6.3,14.4,14.3,14.4
			c7.8,0,14.3-6.4,14.3-14.4C-364.4,266.6-370.7,260.1-378.5,260.1z"/>
		<path class="st2" d="M-379.4,276.8c-1,0-1.9-0.8-1.9-1.9v-7.5c0-1,0.8-1.9,1.9-1.9c1.1,0,1.9,0.8,1.9,1.9v7.5
			C-377.7,276-378.5,276.8-379.4,276.8z"/>
	</g>
	<path class="st2" d="M-372.1,277.3h-7.4c-1,0-1.9-0.8-1.9-1.9c0-1,0.8-1.9,1.9-1.9h7.4c1,0,1.9,0.8,1.9,1.9
		C-370.2,276.5-371,277.3-372.1,277.3z"/>
</g>
<g id="User_1_">
	<g>
		<path class="st1" d="M-378.6,389.3c5.6,0,10.1-5.5,10.1-12.4c0-6.9-4.5-12.4-10.1-12.4c-2.8,0-5.3,1.3-7.1,3.7
			c-1.9,2.3-2.9,5.3-2.9,8.7C-388.8,383.8-384.2,389.3-378.6,389.3z M-378.6,366.8c4.3,0,7.8,4.5,7.8,10.1c0,5.5-3.5,10.1-7.8,10.1
			c-4.3,0-7.8-4.5-7.8-10.1C-386.4,371.3-382.9,366.8-378.6,366.8z M-370.8,387c-0.6,0-1.1,0.5-1.1,1.1c0,0.6,0.5,1.1,1.1,1.1
			c4.3,0,7.8,3.5,7.8,7.9c0,0.6-0.5,1.1-1.1,1.1h-29.2c-0.6,0-1.1-0.5-1.1-1.1c0-4.3,3.5-7.9,7.8-7.9c0.6,0,1.1-0.5,1.1-1.1
			c0-0.6-0.5-1.1-1.1-1.1c-5.6,0-10.1,4.5-10.1,10.1c0,1.9,1.5,3.4,3.4,3.4h29.2c1.9,0,3.4-1.5,3.4-3.4
			C-360.7,391.6-365.2,387-370.8,387z"/>
	</g>
</g>
<g id="Smartphone_1_">
	<g>
		<path class="st1" d="M-370.4,328.5h-16.2c-1.7,0-3.1,1.5-3.1,3.2v29.5c0,1.8,1.4,3.2,3.1,3.2h16.2c1.7,0,3.1-1.5,3.1-3.2v-29.5
			C-367.4,330-368.7,328.5-370.4,328.5z M-369.6,361.4c0,0.5-0.4,1-0.8,1h-16.2c-0.5,0-0.8-0.4-0.8-1v-4.7h17.9L-369.6,361.4
			L-369.6,361.4z M-369.6,354.4h-17.9v-16.9h17.9V354.4z M-369.6,335.3h-17.9v-3.5c0-0.5,0.4-1,0.8-1h16.2c0.5,0,0.8,0.4,0.8,1
			L-369.6,335.3L-369.6,335.3z M-378.5,361.2c0.9,0,1.7-0.8,1.7-1.7c0-0.9-0.8-1.7-1.7-1.7s-1.7,0.8-1.7,1.7
			C-380.2,360.3-379.4,361.2-378.5,361.2z M-376.4,331.8h-4.5c-0.6,0-1.1,0.5-1.1,1.1s0.5,1.1,1.1,1.1h4.5c0.6,0,1.1-0.5,1.1-1.1
			S-375.7,331.8-376.4,331.8z"/>
	</g>
</g>
<g id="Mail_x5F_1_1_">
	<g>
		<path class="st1" d="M-361.4,293.5c-0.6-0.6-1.5-1-2.4-1h-29.2c-0.9,0-1.7,0.4-2.4,1c-0.6,0.6-1,1.5-1,2.4v29.2
			c0,0.2,0,0.5,0.1,0.7v0.1c0,0.2,0.1,0.4,0.2,0.5l0,0c0.2,0.4,0.4,0.7,0.7,1c0.1,0.1,0.3,0.3,0.5,0.4l0,0c0.2,0.1,0.3,0.2,0.5,0.3
			h0.1c0.2,0.1,0.3,0.1,0.5,0.2h0.1c0.2,0,0.4,0.1,0.7,0.1h29.1c0.2,0,0.5,0,0.7-0.1h0.1c0.2,0,0.3-0.1,0.5-0.2h0.1
			c0.2-0.1,0.3-0.2,0.5-0.3l0,0c0.2-0.1,0.3-0.2,0.5-0.4c0.3-0.3,0.5-0.6,0.7-1c0,0,0,0,0-0.1c0.1-0.2,0.1-0.3,0.2-0.5v-0.1
			c0-0.2,0.1-0.4,0.1-0.7v-29.2C-360.4,295-360.8,294.1-361.4,293.5z M-394.1,299.5l11,11l-11,11V299.5z M-362.7,325.7
			c-0.1,0.1-0.1,0.3-0.2,0.4s-0.2,0.2-0.4,0.2c-0.1,0.1-0.3,0.1-0.4,0.1H-393c-0.2,0-0.3,0-0.4-0.1c-0.1-0.1-0.3-0.1-0.4-0.2
			s-0.2-0.2-0.2-0.4c-0.1-0.1-0.1-0.3-0.1-0.4c0-0.3,0.1-0.6,0.3-0.8l12.2-12.2l0.8,0.8c0.6,0.6,1.5,1,2.4,1s1.7-0.4,2.4-1l0.8-0.8
			l12.2,12.2c0.2,0.2,0.3,0.5,0.3,0.8C-362.6,325.4-362.7,325.5-362.7,325.7z M-362.6,321.5l-11-11l11-11V321.5z M-363,296.7
			l-14.6,14.7c-0.4,0.4-1.2,0.4-1.6,0l-14.6-14.7c-0.2-0.2-0.3-0.5-0.3-0.8c0-0.3,0.1-0.6,0.3-0.8c0.2-0.2,0.5-0.3,0.8-0.3h29.2
			c0.3,0,0.6,0.1,0.8,0.3c0.2,0.2,0.3,0.5,0.3,0.8C-362.6,296.2-362.8,296.5-363,296.7z"/>
	</g>
</g>
</svg>
